<svg width="24" height="24" viewBox="0 0 24 24" fill="none" xmlns="http://www.w3.org/2000/svg">
    <path d="M12 2C10.3431 2 9 3.34315 9 5V5.41421C9 5.78579 8.84286 6.14286 8.56066 6.41421L7 8V14H17V8L15.4393 6.41421C15.1571 6.14286 15 5.78579 15 5.41421V5C15 3.34315 13.6569 2 12 2Z" fill="#637381"/>
    <path d="M7 14H17C17 14 17 14 17 14H7C7 14 7 14 7 14Z" fill="#637381"/>
    <path d="M7 14V17H17V14H7Z" fill="#637381"/>
    <path d="M8 17C8 18.1046 8.89543 19 10 19H14C15.1046 19 16 18.1046 16 17H8Z" fill="#637381"/>
</svg>
