<svg width="24" height="24" viewBox="0 0 24 24" fill="none" xmlns="http://www.w3.org/2000/svg">
    <path d="M16 11C17.6569 11 19 9.65685 19 8C19 6.34315 17.6569 5 16 5C14.3431 5 13 6.34315 13 8C13 9.65685 14.3431 11 16 11Z" fill="#637381"/>
    <path d="M8 11C9.65685 11 11 9.65685 11 8C11 6.34315 9.65685 5 8 5C6.34315 5 5 6.34315 5 8C5 9.65685 6.34315 11 8 11Z" fill="#637381"/>
    <path d="M8 13C5.33 13 1 14.34 1 17V19C1 19.5523 1.44772 20 2 20H14C14.5523 20 15 19.5523 15 19V17C15 14.34 10.67 13 8 13Z" fill="#637381"/>
    <path d="M16 13C15.6875 13 15.3531 13.0219 15.0031 13.0562C15.3219 13.7312 15.5 14.5 15.5 15.3125V19C15.5 19.5523 15.9477 20 16.5 20H21.5C22.0523 20 22.5 19.5523 22.5 19V17C22.5 14.34 18.17 13 16 13Z" fill="#637381"/>
</svg>
