<svg width="24" height="24" viewBox="0 0 24 24" fill="none" xmlns="http://www.w3.org/2000/svg">
    <path d="M19.14 12.936C19.14 12.625 19.16 12.314 19.19 12.016L21.42 10.499C21.62 10.374 21.68 10.096 21.54 9.871L19.74 6.88C19.61 6.66 19.35 6.583 19.12 6.685L16.76 7.704C16.35 7.365 15.91 7.06 15.44 6.81L15.01 4.319C14.97 4.076 14.74 3.9 14.49 3.9H9.51001C9.26001 3.9 9.03001 4.077 8.99001 4.319L8.56001 6.81C8.09001 7.06 7.65001 7.364 7.24001 7.704L4.88001 6.684C4.65001 6.582 4.38001 6.66 4.26001 6.88L2.46001 9.87C2.32001 10.095 2.38001 10.373 2.58001 10.498L4.81001 12.015C4.84001 12.313 4.86001 12.624 4.86001 12.935C4.86001 13.246 4.84001 13.557 4.81001 13.855L2.58001 15.372C2.38001 15.497 2.32001 15.775 2.46001 16L4.26001 18.991C4.39001 19.211 4.65001 19.289 4.88001 19.187L7.24001 18.167C7.65001 18.507 8.09001 18.812 8.56001 19.062L8.99001 21.553C9.03001 21.796 9.26001 21.973 9.51001 21.973H14.49C14.74 21.973 14.97 21.796 15.01 21.553L15.44 19.062C15.91 18.812 16.35 18.507 16.76 18.167L19.12 19.187C19.35 19.289 19.61 19.211 19.74 18.991L21.54 16C21.68 15.775 21.62 15.497 21.42 15.372L19.19 13.855C19.16 13.557 19.14 13.246 19.14 12.936ZM12 15.6C10.22 15.6 8.79999 14.18 8.79999 12.4C8.79999 10.62 10.22 9.2 12 9.2C13.78 9.2 15.2 10.62 15.2 12.4C15.2 14.18 13.78 15.6 12 15.6Z" fill="#637381"/>
    </svg>
    